<svg version="1.2" xmlns="http://www.w3.org/2000/svg" viewBox="0 0 199 199" width="199" height="199"><style>.a{fill:none;stroke:#d3cbb9;stroke-miterlimit:100;stroke-width:2}</style><path class="a" d="m199 99.5l-37.8 9.8 32.9 20.9-39-2.4 24.9 30.2-36.4-14.4 14.4 36.4-30.2-24.9 2.4 39-20.9-32.9-9.8 37.8-9.8-37.8-21 32.9 2.5-39-30.2 24.9 14.4-36.4-36.4 14.4 24.9-30.2-39 2.4 32.9-20.9-37.8-9.8 37.8-9.8-32.9-20.9 39 2.4-24.9-30.2 36.4 14.4-14.4-36.4 30.2 24.9-2.4-39 20.9 32.9 9.8-37.8 9.8 37.8 20.9-32.9-2.4 39 30.2-24.9-14.4 36.4 36.4-14.4-24.9 30.2 39-2.4-32.9 20.9zm0 0l-37.9 9.8 33 21-39-2.5 24.8 30.2-36.3-14.4 14.4 36.4-30.2-24.9 2.4 39.1-21-33-9.7 37.8-9.8-37.8-21 33 2.4-39.1-30.1 24.9 14.3-36.4-36.3 14.4 24.8-30.2-39 2.5 33-21-37.8-9.8 37.8-9.8-33-20.9 39 2.4-24.8-30.2 36.3 14.4-14.3-36.4 30.1 24.9-2.4-39 21 33 9.8-37.9 9.7 37.9 21-33-2.4 39 30.2-24.9-14.4 36.4 36.3-14.4-24.8 30.2 39-2.4-33 20.9z"/></svg>