<svg version="1.2" xmlns="http://www.w3.org/2000/svg" viewBox="0 0 235 235" width="235" height="235"><style>.a{fill:#d3cbb9}</style><path class="a" d="m235 117.5l-44.7 11.6 39 24.7-46.1-2.8 29.4 35.6-43-17 17 43-35.6-29.4 2.8 46.1-24.7-39-11.6 44.7-11.6-44.7-24.7 39 2.8-46.1-35.6 29.4 17-43-43 17 29.4-35.6-46.1 2.8 39-24.7-44.7-11.6 44.7-11.6-39-24.7 46.1 2.8-29.4-35.6 43 17-17-43 35.6 29.4-2.8-46.1 24.7 39 11.6-44.7 11.6 44.7 24.7-39-2.8 46.1 35.6-29.4-17 43 43-17-29.4 35.6 46.1-2.8-39 24.7zm0 0l-44.7 11.6 39 24.8-46.1-2.9 29.4 35.6-43-16.9 17 42.9-35.6-29.4 2.8 46.1-24.7-39-11.6 44.7-11.6-44.7-24.7 39 2.9-46.1-35.7 29.4 17-42.9-42.9 16.9 29.3-35.6-46.1 2.9 39-24.8-44.7-11.6 44.7-11.5-39-24.8 46.1 2.9-29.3-35.6 42.9 16.9-17-42.9 35.7 29.3-2.9-46 24.7 38.9 11.6-44.7 11.6 44.7 24.7-38.9-2.8 46 35.6-29.3-17 42.9 43-16.9-29.4 35.6 46.1-2.9-39 24.8z"/></svg>